HIERARCHY
ROOT hip
{
  OFFSET 0 0 0
  CHANNELS 6 Xposition Yposition Zposition Zrotation Yrotation Xrotation
  JOINT abdomen
  {
    OFFSET 0 20.6881 -0.73152
    CHANNELS 3 Zrotation Xrotation Yrotation
    JOINT chest
    {
      OFFSET 0 11.7043 -0.48768
      CHANNELS 3 Zrotation Xrotation Yrotation
      JOINT neck
      {
        OFFSET 0 22.1894 -2.19456
        CHANNELS 3 Zrotation Xrotation Yrotation
        JOINT head
        {
          OFFSET -0.24384 7.07133 1.2192
          CHANNELS 3 Zrotation Xrotation Yrotation
          JOINT leftEye
          {
            OFFSET 4.14528 8.04674 8.04672
            CHANNELS 3 Zrotation Xrotation Yrotation
            End Site
            {
              OFFSET 1 0 0
            }
          }
          JOINT rightEye
          {
            OFFSET -3.6576 8.04674 8.04672
            CHANNELS 3 Zrotation Xrotation Yrotation
            End Site
            {
              OFFSET 1 0 0
            }
          }
        }
      }
      JOINT rCollar
      {
        OFFSET -2.68224 19.2634 -4.8768
        CHANNELS 3 Zrotation Xrotation Yrotation
        JOINT rShldr
        {
          OFFSET -8.77824 -1.95073 1.46304
          CHANNELS 3 Zrotation Xrotation Yrotation
          JOINT rForeArm
          {
            OFFSET -28.1742 -1.7115 0.48768
            CHANNELS 3 Zrotation Xrotation Yrotation
            JOINT rHand
            {
              OFFSET -22.5879 0.773209 7.07136
              CHANNELS 3 Zrotation Xrotation Yrotation
              JOINT rThumb1
              {
                OFFSET -1.2192 -0.487915 3.41376
                CHANNELS 3 Zrotation Xrotation Yrotation
                JOINT rThumb2
                {
                  OFFSET -3.37035 -0.52449 3.41376
                  CHANNELS 3 Zrotation Xrotation Yrotation
                  End Site
                  {
                    OFFSET -1.78271 -1.18214 1.43049
                  }
                }
              }
              JOINT rIndex1
              {
                OFFSET -7.75947 0.938293 5.60832
                CHANNELS 3 Zrotation Xrotation Yrotation
                JOINT rIndex2
                {
                  OFFSET -2.54057 -0.884171 1.56538
                  CHANNELS 3 Zrotation Xrotation Yrotation
                  End Site
                  {
                    OFFSET -1.62519 -0.234802 1.16502
                  }
                }
              }
              JOINT rMid1
              {
                OFFSET -8.24714 1.18213 3.41376
                CHANNELS 3 Zrotation Xrotation Yrotation
                JOINT rMid2
                {
                  OFFSET -3.10165 -0.590103 1.0647
                  CHANNELS 3 Zrotation Xrotation Yrotation
                  End Site
                  {
                    OFFSET -2.48547 -0.328903 0.83742
                  }
                }
              }
              JOINT rRing1
              {
                OFFSET -8.82822 0.546677 1.51678
                CHANNELS 3 Zrotation Xrotation Yrotation
                JOINT rRing2
                {
                  OFFSET -2.60934 -0.819778 -0.0198488
                  CHANNELS 3 Zrotation Xrotation Yrotation
                  End Site
                  {
                    OFFSET -2.33842 -0.294052 0.168128
                  }
                }
              }
              JOINT rPinky1
              {
                OFFSET -8.27202 -0.0477905 -0.4584
                CHANNELS 3 Zrotation Xrotation Yrotation
                JOINT rPinky2
                {
                  OFFSET -1.82734 -0.647385 -0.700984
                  CHANNELS 3 Zrotation Xrotation Yrotation
                  End Site
                  {
                    OFFSET -1.69225 -0.51767 -0.607171
                  }
                }
              }
            }
          }
        }
      }
      JOINT lCollar
      {
        OFFSET 2.68224 19.2634 -4.8768
        CHANNELS 3 Zrotation Xrotation Yrotation
        JOINT lShldr
        {
          OFFSET 8.77824 -1.95073 1.46304
          CHANNELS 3 Zrotation Xrotation Yrotation
          JOINT lForeArm
          {
            OFFSET 28.1742 -1.7115 0.48768
            CHANNELS 3 Zrotation Xrotation Yrotation
            JOINT lHand
            {
              OFFSET 22.5879 0.773209 7.07136
              CHANNELS 3 Zrotation Xrotation Yrotation
              JOINT lThumb1
              {
                OFFSET 1.2192 -0.487915 3.41376
                CHANNELS 3 Zrotation Xrotation Yrotation
                JOINT lThumb2
                {
                  OFFSET 3.37035 -0.52449 3.41376
                  CHANNELS 3 Zrotation Xrotation Yrotation
                  End Site
                  {
                    OFFSET 1.78271 -1.18214 1.43049
                  }
                }
              }
              JOINT lIndex1
              {
                OFFSET 7.75947 0.938293 5.60832
                CHANNELS 3 Zrotation Xrotation Yrotation
                JOINT lIndex2
                {
                  OFFSET 2.54057 -0.884171 1.56538
                  CHANNELS 3 Zrotation Xrotation Yrotation
                  End Site
                  {
                    OFFSET 1.62519 -0.234802 1.16502
                  }
                }
              }
              JOINT lMid1
              {
                OFFSET 8.24714 1.18213 3.41376
                CHANNELS 3 Zrotation Xrotation Yrotation
                JOINT lMid2
                {
                  OFFSET 3.10165 -0.590103 1.0647
                  CHANNELS 3 Zrotation Xrotation Yrotation
                  End Site
                  {
                    OFFSET 2.48547 -0.328903 0.83742
                  }
                }
              }
              JOINT lRing1
              {
                OFFSET 8.82822 0.546677 1.51678
                CHANNELS 3 Zrotation Xrotation Yrotation
                JOINT lRing2
                {
                  OFFSET 2.60934 -0.819778 -0.0198488
                  CHANNELS 3 Zrotation Xrotation Yrotation
                  End Site
                  {
                    OFFSET 2.33842 -0.294052 0.168128
                  }
                }
              }
              JOINT lPinky1
              {
                OFFSET 8.27202 -0.0477905 -0.4584
                CHANNELS 3 Zrotation Xrotation Yrotation
                JOINT lPinky2
                {
                  OFFSET 1.82734 -0.647385 -0.700984
                  CHANNELS 3 Zrotation Xrotation Yrotation
                  End Site
                  {
                    OFFSET 1.69225 -0.51767 -0.607171
                  }
                }
              }
            }
          }
        }
      }
    }
  }
  JOINT rButtock
  {
    OFFSET -8.77824 4.35084 1.2192
    CHANNELS 3 Zrotation Xrotation Yrotation
    JOINT rThigh
    {
      OFFSET 0 -1.70687 -2.19456
      CHANNELS 3 Zrotation Xrotation Yrotation
      JOINT rShin
      {
        OFFSET 0 -36.8199 0.73152
        CHANNELS 3 Zrotation Xrotation Yrotation
        JOINT rFoot
        {
          OFFSET 0.73152 -45.1104 -5.12064
          CHANNELS 3 Zrotation Xrotation Yrotation
          End Site
          {
            OFFSET -1.1221 -3.69964 12.103
          }
        }
      }
    }
  }
  JOINT lButtock
  {
    OFFSET 8.77824 4.35084 1.2192
    CHANNELS 3 Zrotation Xrotation Yrotation
    JOINT lThigh
    {
      OFFSET 0 -1.70687 -2.19456
      CHANNELS 3 Zrotation Xrotation Yrotation
      JOINT lShin
      {
        OFFSET 0 -36.8199 0.73152
        CHANNELS 3 Zrotation Xrotation Yrotation
        JOINT lFoot
        {
          OFFSET -0.73152 -45.1104 -5.12064
          CHANNELS 3 Zrotation Xrotation Yrotation
          End Site
          {
            OFFSET 1.1221 -3.69964 12.103
          }
        }
      }
    }
  }
}
MOTION
Frames:	9
Frame Time:	0.00833333
2.43691 73.4392 -80.7693 -2.2019 1.2884 26.9148 2.24554 22.0938 -1.36416 2.49697 -2.21205 -0.0973918 -1.46902 -0.307025 0.515821 -2.56113 -20.3354 1.00978 -0.0 0.0 0.0 -0.0 0.0 0.0 -1.42365e-14 4.22873e-16 2.28715e-14 75.8685 6.22693 7.77378 -11.9002 -5.37888 21.4169 -1.45017 32.0447 5.04695 -1.52107e-10 1.59493e-10 7.61357e-10 -2.42971e-10 2.80117e-10 1.31538e-09 -1.52103e-10 1.59503e-10 7.61348e-10 7.73091 5.47488 0.417314 -1.52111e-10 1.59503e-10 7.61358e-10 2.90554 0.965183 0.102902 -1.521e-10 1.59504e-10 7.61364e-10 10.2786 0.731801 0.0259123 -1.52107e-10 1.59504e-10 7.61376e-10 2.22167 -0.733487 -0.20892 -1.44946e-14 4.21172e-16 2.2538e-14 -74.6031 21.7812 -11.6711 8.45698 -3.255 -14.9381 0.0668319 -7.35192 1.03902 1.0507e-09 -1.50076e-09 2.32703e-11 1.81506e-09 -2.5999e-09 4.92094e-11 1.05069e-09 -1.50077e-09 2.32783e-11 -7.73091 5.47488 -0.417314 1.0507e-09 -1.50077e-09 2.32695e-11 -2.90554 0.965183 -0.102902 1.05069e-09 -1.50077e-09 2.32639e-11 -10.2786 0.731801 -0.0259123 1.0507e-09 -1.50077e-09 2.32559e-11 -2.22167 -0.733487 0.20892 -2.03217e-16 0.0 -3.88251e-19 -2.16829 -60.6767 -3.94188 -0.769481 55.583 1.49206 -8.63088 -25.3794 -15.668 2.03217e-16 0.0 3.88251e-19 12.1976 -61.502 13.2668 0.767028 56.5788 -1.67945 10.2225 -20.0943 21.6626
2.39475 73.3956 -80.356 -2.1985 1.3266 26.9405 2.235 22.0218 -1.35053 2.4946 -2.23716 -0.0954846 -1.47235 -0.321887 0.511608 -2.57748 -20.3572 0.999341 -0.0 0.0 0.0 -0.0 0.0 0.0 -2.77012e-14 -3.18094e-15 1.54555e-14 75.8304 6.27332 7.83935 -11.8971 -5.37672 21.4108 -1.44655 32.0098 5.04012 2.35459e-10 1.95474e-10 5.65309e-10 4.21366e-10 3.38735e-10 9.66333e-10 2.35464e-10 1.95483e-10 5.65299e-10 7.73091 5.47488 0.417314 2.35455e-10 1.95483e-10 5.65309e-10 2.90554 0.965183 0.102902 2.35466e-10 1.95483e-10 5.65316e-10 10.2786 0.731801 0.0259123 2.3546e-10 1.95483e-10 5.65328e-10 2.22167 -0.733487 -0.20892 -2.79603e-14 -3.18094e-15 1.51573e-14 -74.7168 21.4718 -11.6061 8.41527 -3.23251 -14.8614 0.0644216 -7.22323 1.02063 1.15523e-09 -1.51742e-09 5.74026e-10 1.994e-09 -2.62748e-09 1.0022e-09 1.15522e-09 -1.51743e-09 5.74036e-10 -7.73091 5.47488 -0.417314 1.15523e-09 -1.51742e-09 5.74026e-10 -2.90554 0.965183 -0.102902 1.15522e-09 -1.51743e-09 5.7402e-10 -10.2786 0.731801 -0.0259123 1.15523e-09 -1.51742e-09 5.74014e-10 -2.22167 -0.733487 0.20892 -2.03217e-16 0.0 -3.88251e-19 -2.09563 -60.4406 -3.91433 -0.773372 55.694 1.50232 -8.75617 -25.5204 -15.8327 2.03217e-16 0.0 3.88251e-19 12.0584 -61.2868 13.0206 0.771447 56.6861 -1.68807 10.3118 -20.2194 21.7489
2.35229 73.3402 -79.9308 -2.1942 1.3567 26.9709 2.21558 21.933 -1.33627 2.49231 -2.26217 -0.0938798 -1.47631 -0.347355 0.504629 -2.58639 -20.3615 0.985429 -0.0 0.0 0.0 -0.0 0.0 0.0 -3.59784e-14 -1.47114e-14 -4.98243e-15 75.8066 6.27645 7.90629 -11.8839 -5.36754 21.3854 -1.44556 32.0002 5.03823 1.6212e-09 9.35816e-11 -9.91343e-10 2.7744e-09 1.46136e-10 -1.75492e-09 1.62121e-09 9.35896e-11 -9.91353e-10 7.73091 5.47488 0.417314 1.6212e-09 9.35899e-11 -9.91345e-10 2.90554 0.965183 0.102902 1.62121e-09 9.35902e-11 -9.9134e-10 10.2786 0.731801 0.0259123 1.6212e-09 9.35897e-11 -9.9133e-10 2.22167 -0.733487 -0.20892 -3.61755e-14 -1.47092e-14 -5.23868e-15 -74.8498 21.1186 -11.5204 8.36292 -3.20426 -14.7653 0.0614034 -7.05161 0.996125 1.18416e-09 -1.04364e-09 3.00785e-09 2.03822e-09 -1.80237e-09 5.20702e-09 1.18416e-09 -1.04364e-09 3.00786e-09 -7.73091 5.47488 -0.417314 1.18417e-09 -1.04364e-09 3.00785e-09 -2.90554 0.965183 -0.102902 1.18416e-09 -1.04364e-09 3.00784e-09 -10.2786 0.731801 -0.0259123 1.18417e-09 -1.04364e-09 3.00783e-09 -2.22167 -0.733487 0.20892 -2.03217e-16 0.0 -3.88251e-19 -2.02198 -60.2247 -3.88284 -0.778605 55.8315 1.51381 -8.87382 -25.648 -15.9874 2.03217e-16 0.0 3.88251e-19 11.9278 -61.0867 12.7851 0.777246 56.8214 -1.69836 10.4028 -20.3365 21.842
2.30948 73.2692 -79.4974 -2.1951 1.3789 27.0144 2.18926 21.8314 -1.32058 2.48984 -2.2878 -0.0922742 -1.48 -0.380536 0.496188 -2.59106 -20.353 0.969683 -0.0 0.0 0.0 -0.0 0.0 0.0 -4.18639e-14 -3.22056e-14 -3.51445e-14 75.7941 6.24649 7.97267 -11.8629 -5.35291 21.345 -1.44632 32.0076 5.03968 3.73123e-09 -1.01356e-10 -3.50989e-09 6.35343e-09 -2.1666e-10 -6.15382e-09 3.73124e-09 -1.0135e-10 -3.5099e-09 7.73091 5.47488 0.417314 3.73123e-09 -1.01349e-10 -3.50989e-09 2.90554 0.965183 0.102902 3.73124e-09 -1.01349e-10 -3.50989e-09 10.2786 0.731801 0.0259123 3.73123e-09 -1.0135e-10 -3.50988e-09 2.22167 -0.733487 -0.20892 -4.19546e-14 -3.22006e-14 -3.53495e-14 -75.0002 20.7242 -11.4164 8.30076 -3.17074 -14.6514 0.0579726 -6.84365 0.966475 1.1561e-09 -2.23037e-10 6.78389e-09 1.98093e-09 -3.74181e-10 1.17298e-08 1.1561e-09 -2.23038e-10 6.78391e-09 -7.73091 5.47488 -0.417314 1.15611e-09 -2.23037e-10 6.78389e-09 -2.90554 0.965183 -0.102902 1.1561e-09 -2.23038e-10 6.78389e-09 -10.2786 0.731801 -0.0259123 1.15611e-09 -2.23037e-10 6.78388e-09 -2.22167 -0.733487 0.20892 -2.03217e-16 0.0 -3.88251e-19 -1.94621 -60.0249 -3.84713 -0.785058 55.9926 1.52643 -8.98536 -25.7619 -16.135 2.03217e-16 0.0 3.88251e-19 11.804 -60.8991 12.5564 0.784351 56.9819 -1.71017 10.4948 -20.4469 21.9395
2.26582 73.1824 -79.0547 -2.2049 1.3945 27.0594 2.16406 21.7205 -1.30041 2.48651 -2.3194 -0.0893353 -1.48527 -0.421616 0.487859 -2.59266 -20.3279 0.955675 -0.0 0.0 0.0 -0.0 0.0 0.0 -4.64314e-14 -4.79104e-14 -6.26308e-14 75.7854 6.19972 8.04326 -11.8339 -5.33274 21.2889 -1.44791 32.0228 5.04266 5.55185e-09 -2.8053e-10 -5.71787e-09 9.4406e-09 -5.48877e-10 -1.00093e-08 5.55186e-09 -2.80525e-10 -5.71788e-09 7.73091 5.47488 0.417314 5.55185e-09 -2.80523e-10 -5.71788e-09 2.90554 0.965183 0.102902 5.55186e-09 -2.80524e-10 -5.71788e-09 10.2786 0.731801 0.0259123 5.55185e-09 -2.80526e-10 -5.71788e-09 2.22167 -0.733487 -0.20892 -4.64162e-14 -4.79033e-14 -6.27938e-14 -75.1665 20.2818 -11.3038 8.22628 -3.13089 -14.5149 0.0537198 -6.58525 0.929656 1.10076e-09 5.45142e-10 1.00376e-08 1.87758e-09 9.6243e-10 1.73497e-08 1.10076e-09 5.45145e-10 1.00376e-08 -7.73091 5.47488 -0.417314 1.10077e-09 5.45143e-10 1.00376e-08 -2.90554 0.965183 -0.102902 1.10076e-09 5.45144e-10 1.00376e-08 -10.2786 0.731801 -0.0259123 1.10077e-09 5.45144e-10 1.00376e-08 -2.22167 -0.733487 0.20892 -2.03217e-16 0.0 -3.88251e-19 -1.85942 -59.8426 -3.80457 -0.792932 56.1828 1.54064 -9.09745 -25.8587 -16.289 2.03217e-16 0.0 3.88251e-19 11.7053 -60.7278 12.3494 0.793192 57.1748 -1.72367 10.5811 -20.5422 22.0336
2.22047 73.0776 -78.6034 -2.2247 1.3994 27.1139 2.148 21.6042 -1.27275 2.48164 -2.36233 -0.0837304 -1.49395 -0.470784 0.481216 -2.59236 -20.2824 0.946974 -0.0 0.0 0.0 -0.0 0.0 0.0 -5.07547e-14 -5.40725e-14 -7.50412e-14 75.7734 6.15243 8.12283 -11.7966 -5.30697 21.2168 -1.44936 32.0368 5.0454 6.06934e-09 -3.35129e-10 -6.34287e-09 1.0318e-08 -6.49743e-10 -1.11002e-08 6.06936e-09 -3.35125e-10 -6.34288e-09 7.73091 5.47488 0.417314 6.06935e-09 -3.35123e-10 -6.34287e-09 2.90554 0.965183 0.102902 6.06936e-09 -3.35125e-10 -6.34288e-09 10.2786 0.731801 0.0259123 6.06935e-09 -3.35126e-10 -6.34288e-09 2.22167 -0.733487 -0.20892 -5.06785e-14 -5.40655e-14 -7.51903e-14 -75.3476 19.7847 -11.192 8.13688 -3.08365 -14.3509 0.0483405 -6.26231 0.883666 1.04787e-09 8.6165e-10 1.09044e-08 1.7836e-09 1.5128e-09 1.88457e-08 1.04786e-09 8.61654e-10 1.09044e-08 -7.73091 5.47488 -0.417314 1.04787e-09 8.61651e-10 1.09044e-08 -2.90554 0.965183 -0.102902 1.04786e-09 8.61654e-10 1.09044e-08 -10.2786 0.731801 -0.0259123 1.04787e-09 8.61654e-10 1.09044e-08 -2.22167 -0.733487 0.20892 -2.03217e-16 0.0 -3.88251e-19 -1.75276 -59.6796 -3.75256 -0.802455 56.4074 1.55693 -9.21681 -25.9344 -16.4626 2.03217e-16 0.0 3.88251e-19 11.6493 -60.5772 12.1787 0.804227 57.4071 -1.73905 10.6549 -20.6144 22.1162
2.17234 72.9542 -78.147 -2.2594 1.4024 27.1669 2.14624 21.4865 -1.24101 2.4744 -2.41409 -0.0762034 -1.51043 -0.525067 0.476802 -2.58512 -20.2206 0.946623 -0.0 0.0 0.0 -0.0 0.0 0.0 -5.63862e-14 -4.51502e-14 -6.37493e-14 75.7539 6.11667 8.21434 -11.7493 -5.2744 21.1256 -1.45012 32.044 5.04683 4.40944e-09 -1.75204e-10 -4.2865e-09 7.50416e-09 -3.5293e-10 -7.50907e-09 4.40945e-09 -1.75201e-10 -4.28651e-09 7.73091 5.47488 0.417314 4.40945e-09 -1.75201e-10 -4.28651e-09 2.90554 0.965183 0.102902 4.40946e-09 -1.75202e-10 -4.28652e-09 10.2786 0.731801 0.0259123 4.40944e-09 -1.75203e-10 -4.28651e-09 2.22167 -0.733487 -0.20892 -5.63188e-14 -4.51471e-14 -6.39341e-14 -75.5454 19.2406 -11.078 8.03382 -3.0294 -14.1624 0.0433197 -5.90669 0.833121 1.02488e-09 4.15284e-10 7.75321e-09 1.74952e-09 7.35617e-10 1.33997e-08 1.02488e-09 4.15287e-10 7.75323e-09 -7.73091 5.47488 -0.417314 1.02488e-09 4.15284e-10 7.75321e-09 -2.90554 0.965183 -0.102902 1.02488e-09 4.15286e-10 7.75321e-09 -10.2786 0.731801 -0.0259123 1.02489e-09 4.15287e-10 7.75321e-09 -2.22167 -0.733487 0.20892 -2.03217e-16 0.0 -3.88251e-19 -1.62521 -59.5387 -3.69222 -0.814394 56.6794 1.57606 -9.34112 -25.9894 -16.6518 2.03217e-16 0.0 3.88251e-19 11.633 -60.4523 12.0346 0.818206 57.6913 -1.75707 10.7134 -20.6623 22.1821
2.12402 72.8133 -77.6804 -2.3025 1.3972 27.2218 2.15354 21.3643 -1.20541 2.46536 -2.47315 -0.0670982 -1.53243 -0.585374 0.473736 -2.57212 -20.1427 0.952017 -0.0 0.0 0.0 -0.0 0.0 0.0 -6.23311e-14 -2.64364e-14 -3.71417e-14 75.7317 6.08117 8.31467 -11.6926 -5.23542 21.0166 -1.45079 32.0505 5.04809 1.3141e-09 1.209e-10 -4.80438e-10 2.2563e-09 1.96887e-10 -8.62176e-10 1.31411e-09 1.20903e-10 -4.80448e-10 7.73091 5.47488 0.417314 1.3141e-09 1.20901e-10 -4.80444e-10 2.90554 0.965183 0.102902 1.31411e-09 1.209e-10 -4.80446e-10 10.2786 0.731801 0.0259123 1.3141e-09 1.20901e-10 -4.8044e-10 2.22167 -0.733487 -0.20892 -6.23141e-14 -2.644e-14 -3.73964e-14 -75.7589 18.65 -10.9591 7.91761 -2.96841 -13.9505 0.0386572 -5.51403 0.777423 1.00944e-09 -5.12779e-10 1.95648e-09 1.73386e-09 -8.79949e-10 3.3826e-09 1.00944e-09 -5.1278e-10 1.95649e-09 -7.73091 5.47488 -0.417314 1.00944e-09 -5.12781e-10 1.95648e-09 -2.90554 0.965183 -0.102902 1.00944e-09 -5.12779e-10 1.95648e-09 -10.2786 0.731801 -0.0259123 1.00945e-09 -5.12777e-10 1.95647e-09 -2.22167 -0.733487 0.20892 -2.03217e-16 0.0 -3.88251e-19 -1.48108 -59.4183 -3.62433 -0.828605 56.9921 1.59776 -9.46791 -26.0251 -16.8517 2.03217e-16 0.0 3.88251e-19 11.6482 -60.3498 11.9128 0.8349 58.0201 -1.77761 10.7602 -20.6901 22.2364
2.07382 72.6544 -77.2059 -2.3566 1.3831 27.2861 2.1625 21.231 -1.15821 2.45603 -2.54624 -0.0544812 -1.55174 -0.657709 0.47146 -2.56386 -20.0396 0.95825 -0.0 0.0 0.0 -0.0 0.0 0.0 -6.58428e-14 -6.43071e-15 -8.33808e-15 75.7123 6.02731 8.41952 -11.6297 -5.19229 20.8956 -1.45219 32.0639 5.05073 -1.80602e-09 4.09558e-10 3.30277e-09 -3.03491e-09 7.33978e-10 5.74573e-09 -1.80601e-09 4.09561e-10 3.30276e-09 7.73091 5.47488 0.417314 -1.80602e-09 4.09556e-10 3.30276e-09 2.90554 0.965183 0.102902 -1.80601e-09 4.09556e-10 3.30276e-09 10.2786 0.731801 0.0259123 -1.80602e-09 4.09557e-10 3.30277e-09 2.22167 -0.733487 -0.20892 -6.58832e-14 -6.44074e-15 -8.65956e-15 -75.9833 17.9947 -10.8459 7.78447 -2.89943 -13.7078 0.0323519 -5.01589 0.706823 9.56513e-10 -1.43321e-09 -3.84531e-09 1.65405e-09 -2.48281e-09 -6.64293e-09 9.56509e-10 -1.43322e-09 -3.8453e-09 -7.73091 5.47488 -0.417314 9.56513e-10 -1.43322e-09 -3.8453e-09 -2.90554 0.965183 -0.102902 9.56509e-10 -1.43322e-09 -3.8453e-09 -10.2786 0.731801 -0.0259123 9.5652e-10 -1.43321e-09 -3.84531e-09 -2.22167 -0.733487 0.20892 -2.03217e-16 0.0 -3.88251e-19 -1.31954 -59.3131 -3.54585 -0.843906 57.3213 1.62093 -9.60374 -26.0397 -17.0751 2.03217e-16 0.0 3.88251e-19 11.7047 -60.2612 11.8349 0.853249 58.371 -1.79952 10.7987 -20.6975 22.287
